# xmcd
#
# Track frame offsets: 
#        182
#        10002
#        28327
#        38937
#        51607
#        60322
#        85330
#        116007
#        128315
#        146035
#
# Disc length: 2246 seconds
#
# Revision: 1
# Processed by: cddbd v1.5.2PL0 Copyright (c) Steve Scherf et al.
# Submitted via: ExactAudioCopy v1.0b4
#
DISCID=8508c40a
DTITLE=Modern Blues - The Gold Collection CD2
DYEAR=1900
DGENRE=
TTITLE0=Canned Heat - Rolling and Thumbling
TTITLE1=Mike Bloomfield - Hully Gully
TTITLE2=Johny Winter - 38,32,20
TTITLE3=James Cotton - Off The Wall
TTITLE4=Roy Brown - Let The Four Winds Blow 
TTITLE5=Jimi Hendrix - House Of The Rising Sun
TTITLE6=Freddi King - Boogie Funk
TTITLE7=Savoy Brown - I'm Tired
TTITLE8=John Mayall - Mama Talk To Your Daugbter
TTITLE9=B.B. King - The Thrill Is Gone
EXTD=
EXTT0=
EXTT1=
EXTT2=
EXTT3=
EXTT4=
EXTT5=
EXTT6=
EXTT7=
EXTT8=
EXTT9=
PLAYORDER=
